<svg width="18" height="10" viewBox="0 0 18 10" fill="none" xmlns="http://www.w3.org/2000/svg">
<path d="M1.04506 0.615983C1.27947 0.381644 1.59736 0.25 1.92881 0.25C2.26027 0.25 2.57815 0.381644 2.81256 0.615983L9.00006 6.80348L15.1876 0.615983C15.4233 0.388286 15.7391 0.262292 16.0668 0.26514C16.3946 0.267988 16.7081 0.39945 16.9398 0.63121C17.1716 0.86297 17.3031 1.17649 17.3059 1.50423C17.3088 1.83198 17.1828 2.14773 16.9551 2.38348L9.88381 9.45473C9.6494 9.68907 9.33152 9.82072 9.00006 9.82072C8.66861 9.82072 8.35072 9.68907 8.11631 9.45473L1.04506 2.38348C0.810721 2.14907 0.679077 1.83119 0.679077 1.49973C0.679077 1.16828 0.810721 0.850393 1.04506 0.615983Z" fill="black"/>
</svg>