<svg xmlns="http://www.w3.org/2000/svg" width="198" height="28" fill="none">
  <path fill="#12060D"
    d="M.183.748h19.262v6.356H6.906v5.048h9.631v5.982h-9.63v8.787H.182V.748Zm35.62 26.921c-1.768 0-3.368-.262-4.797-.785-1.405-.549-2.605-1.309-3.598-2.281-.97-.997-1.72-2.181-2.253-3.552-.533-1.371-.8-2.904-.8-4.6V.749h6.724v15.517c0 1.595.424 2.841 1.272 3.739.848.872 1.998 1.308 3.452 1.308s2.605-.436 3.453-1.308c.848-.898 1.272-2.144 1.272-3.74V.749h6.723v15.704c0 1.695-.266 3.228-.8 4.599a10.207 10.207 0 0 1-2.289 3.552c-.969.972-2.168 1.732-3.598 2.28-1.405.524-2.992.786-4.76.786ZM59.608 7.104h-7.996V.748h22.715v6.356H66.33v19.817h-6.723V7.104ZM78.853.748H92.48c1.357 0 2.556.174 3.598.523 1.042.35 1.914.823 2.617 1.421a5.995 5.995 0 0 1 1.599 2.094 5.82 5.82 0 0 1 .545 2.505c0 1.122-.218 2.044-.654 2.767-.412.698-.86 1.246-1.345 1.645a6.607 6.607 0 0 1-1.998 1.01v.187a7.598 7.598 0 0 1 2.434 1.159c.63.448 1.2 1.097 1.709 1.944.508.823.763 1.907.763 3.253a7.51 7.51 0 0 1-.618 3.029 6.99 6.99 0 0 1-1.817 2.43c-.8.673-1.805 1.209-3.017 1.608-1.187.399-2.58.598-4.18.598H78.854V.748ZM91.39 21.312c1.187 0 2.06-.249 2.617-.747a2.404 2.404 0 0 0 .836-1.87c0-.748-.279-1.37-.836-1.87-.558-.498-1.43-.747-2.617-.747h-5.815v5.235h5.815Zm-.363-10.469c.92 0 1.599-.212 2.035-.636.46-.423.69-.96.69-1.607 0-.648-.23-1.184-.69-1.608-.436-.424-1.115-.636-2.035-.636h-5.452v4.487h5.452Zm43.407 16.826c-2.084 0-18.131-.362-19.875-1.085-1.745-.747-3.247-1.757-4.507-3.028a14.111 14.111 0 0 1-2.907-4.412 13.961 13.961 0 0 1-1.018-5.31c0-1.87.339-3.639 1.018-5.309a14.11 14.11 0 0 1 2.907-4.412c1.26-1.271 2.762-2.268 4.507-2.991C116.303.374 132.35 0 134.434 0c2.084 0 3.998.374 5.742 1.122 1.745.723 3.235 1.72 4.47 2.99a13.326 13.326 0 0 1 2.908 4.413 13.545 13.545 0 0 1 1.054 5.31c0 1.869-.351 3.639-1.054 5.309a13.327 13.327 0 0 1-2.908 4.412c-1.235 1.271-2.725 2.28-4.47 3.028-1.744.723-3.658 1.085-5.742 1.085Zm0-6.357c1.042 0 1.999-.174 2.871-.523a6.495 6.495 0 0 0 2.217-1.533c.63-.648 1.115-1.433 1.454-2.356.363-.922.545-1.944.545-3.066 0-1.121-.182-2.143-.545-3.066-.339-.922-.824-1.707-1.454-2.355a6.082 6.082 0 0 0-2.217-1.496c-.872-.374-1.829-.56-2.871-.56s-16.132.186-17.004.56a6.43 6.43 0 0 0-2.254 1.496c-.605.648-1.09 1.433-1.453 2.355-.34.923-.509 1.945-.509 3.066 0 1.122.169 2.144.509 3.066.363.923.848 1.708 1.453 2.356a6.883 6.883 0 0 0 2.254 1.533c.872.349 15.962.523 17.004.523ZM154.045.748h6.724v19.817h12.175v6.356h-18.899V.748Zm27.6 16.825L172.195.748h7.087l5.452 10.095h.545L190.73.748h7.087l-9.449 16.825v9.348h-6.723v-9.348Z" />
</svg>