<svg width="360" height="534" viewBox="0 0 360 534" fill="none" xmlns="http://www.w3.org/2000/svg">
<g clip-path="url(#clip0_2076_301)">
<rect width="360" height="533.601" fill="#EBEBEB"/>
<g filter="url(#filter0_b_2076_301)">
<path d="M120.759 533.601H239.241M0 266.463H360M71.7089 533.601H288.291V491.16C288.291 484.878 283.191 479.786 276.899 479.786H83.1013C76.8094 479.786 71.7089 484.878 71.7089 491.16V533.601ZM291.646 267.032C291.646 328.905 241.405 379.064 179.43 379.064C117.456 379.064 67.2152 328.905 67.2152 267.032C67.2152 205.158 117.456 155 179.43 155C241.405 155 291.646 205.158 291.646 267.032ZM220.977 479.786C220.977 469.077 216.716 458.807 209.131 451.235C201.547 443.663 191.26 439.409 180.534 439.409C169.807 439.409 159.521 443.663 151.936 451.235C144.351 458.807 140.091 469.077 140.09 479.786H220.977Z" stroke="#9E9D9D"/>
</g>
<g filter="url(#filter1_b_2076_301)">
<path d="M120.759 0H239.241M0 267.419H360M71.7089 0H288.291V42.4857C288.291 48.7739 283.191 53.8714 276.899 53.8714H83.1013C76.8094 53.8714 71.7089 48.7739 71.7089 42.4857V0ZM291.646 266.85C291.646 204.911 241.405 154.7 179.43 154.7C117.456 154.7 67.2152 204.911 67.2152 266.85C67.2152 328.789 117.456 379 179.43 379C241.405 379 291.646 328.789 291.646 266.85ZM220.977 53.8714C220.977 64.5913 216.716 74.8723 209.131 82.4524C201.547 90.0326 191.26 94.291 180.534 94.291C169.807 94.291 159.521 90.0326 151.936 82.4524C144.351 74.8723 140.091 64.5913 140.09 53.8714H220.977Z" stroke="#9E9D9D"/>
</g>
</g>
<rect x="1" y="1" width="358" height="531.601" stroke="#9E9D9D" stroke-width="2"/>
<defs>
<filter id="filter0_b_2076_301" x="-28" y="126.5" width="416" height="435.601" filterUnits="userSpaceOnUse" color-interpolation-filters="sRGB">
<feFlood flood-opacity="0" result="BackgroundImageFix"/>
<feGaussianBlur in="BackgroundImageFix" stdDeviation="14"/>
<feComposite in2="SourceAlpha" operator="in" result="effect1_backgroundBlur_2076_301"/>
<feBlend mode="normal" in="SourceGraphic" in2="effect1_backgroundBlur_2076_301" result="shape"/>
</filter>
<filter id="filter1_b_2076_301" x="-28" y="-28.5" width="416" height="436" filterUnits="userSpaceOnUse" color-interpolation-filters="sRGB">
<feFlood flood-opacity="0" result="BackgroundImageFix"/>
<feGaussianBlur in="BackgroundImageFix" stdDeviation="14"/>
<feComposite in2="SourceAlpha" operator="in" result="effect1_backgroundBlur_2076_301"/>
<feBlend mode="normal" in="SourceGraphic" in2="effect1_backgroundBlur_2076_301" result="shape"/>
</filter>
<clipPath id="clip0_2076_301">
<rect width="360" height="533.601" fill="white"/>
</clipPath>
</defs>
</svg>
