<svg width="25" height="26" viewBox="0 0 25 26" fill="none" xmlns="http://www.w3.org/2000/svg">
<path d="M12.5 0.5C8.12008 0.5 4.54545 3.64567 4.54545 7.5V9.5H2.27273C1.01705 9.5 0 10.395 0 11.5V23.5C0 24.605 1.01705 25.5 2.27273 25.5H22.7273C23.983 25.5 25 24.605 25 23.5V11.5C25 10.395 23.983 9.5 22.7273 9.5H20.4545V7.5C20.4545 3.77158 17.087 0.768565 12.9039 0.572266C12.7754 0.52671 12.6385 0.502219 12.5 0.5ZM12.5 2.5C15.6519 2.5 18.1818 4.72633 18.1818 7.5V9.5H6.81818V7.5C6.81818 4.72633 9.34811 2.5 12.5 2.5Z" fill="#FF0000"/>
</svg>