<svg width="25" height="25" viewBox="0 0 25 25" fill="none" xmlns="http://www.w3.org/2000/svg">
<path d="M12.5 0C8.12008 0 4.54545 3.14567 4.54545 7V9H2.27273C1.01705 9 0 9.895 0 11V23C0 24.105 1.01705 25 2.27273 25H22.7273C23.983 25 25 24.105 25 23V11C25 9.895 23.983 9 22.7273 9H6.81818V7C6.81818 4.22633 9.34811 2 12.5 2C14.9822 2 17.0714 3.39467 17.8511 5.33398C17.8983 5.46069 17.9738 5.57782 18.0732 5.67847C18.1726 5.77912 18.2939 5.86126 18.4299 5.92007C18.5659 5.97887 18.7138 6.01315 18.8651 6.02089C19.0164 6.02863 19.1679 6.00967 19.3107 5.96513C19.4535 5.92059 19.5848 5.85136 19.6967 5.76152C19.8087 5.67169 19.8991 5.56305 19.9627 5.44201C20.0263 5.32097 20.0617 5.18996 20.0669 5.05669C20.0721 4.92343 20.0469 4.7906 19.9929 4.66602C18.8999 1.94733 15.9519 0 12.5 0Z" fill="#21E900"/>
</svg>
